<svg width="856" height="308" viewBox="0 0 856 308" fill="none" xmlns="http://www.w3.org/2000/svg">
<g filter="url(#filter0_i_2014_4)">
<path d="M12.8629 189V78.165H53.9029V189H12.8629ZM33.9229 55.35C27.4429 55.35 21.9529 53.1 17.4529 48.6C12.9529 44.01 10.7029 38.565 10.7029 32.265C10.7029 25.965 12.9529 20.52 17.4529 15.93C22.0429 11.25 27.5329 8.90999 33.9229 8.90999C38.1529 8.90999 42.0229 9.98999 45.5329 12.15C49.0429 14.22 51.8779 17.01 54.0379 20.52C56.1979 24.03 57.2779 27.945 57.2779 32.265C57.2779 38.565 54.9829 44.01 50.3929 48.6C45.8029 53.1 40.3129 55.35 33.9229 55.35ZM158.452 74.925C166.192 74.925 173.752 76.5 181.132 79.65C188.512 82.8 194.587 87.795 199.357 94.635C204.127 101.385 206.512 110.295 206.512 121.365V189H165.337V128.115C165.337 120.195 163.447 114.255 159.667 110.295C155.887 106.245 150.937 104.22 144.817 104.22C140.767 104.22 136.942 105.3 133.342 107.46C129.832 109.53 126.952 112.5 124.702 116.37C122.542 120.15 121.462 124.515 121.462 129.465V189H80.4219V78.165H121.462V94.5C122.542 91.53 124.792 88.56 128.212 85.59C131.722 82.53 136.087 80.01 141.307 78.03C146.617 75.96 152.332 74.925 158.452 74.925ZM280.041 74.925C287.331 74.925 293.991 75.555 300.021 76.815C306.051 77.985 311.091 79.335 315.141 80.865C319.281 82.395 321.936 83.655 323.106 84.645L309.741 108.81C308.031 107.55 304.836 105.93 300.156 103.95C295.566 101.97 290.436 100.98 284.766 100.98C280.446 100.98 276.801 101.655 273.831 103.005C270.861 104.265 269.376 106.29 269.376 109.08C269.376 111.87 270.996 114.12 274.236 115.83C277.566 117.45 282.336 118.89 288.546 120.15C293.946 121.23 299.436 122.94 305.016 125.28C310.596 127.62 315.231 131.085 318.921 135.675C322.701 140.175 324.591 146.205 324.591 153.765C324.591 161.505 322.926 167.895 319.596 172.935C316.266 177.975 311.856 181.89 306.366 184.68C300.876 187.47 294.936 189.405 288.546 190.485C282.156 191.655 275.946 192.24 269.916 192.24C261.456 192.24 254.076 191.475 247.776 189.945C241.566 188.415 236.526 186.66 232.656 184.68C228.786 182.7 226.086 181.125 224.556 179.955L237.786 152.955C240.126 154.935 243.951 157.185 249.261 159.705C254.571 162.135 260.196 163.35 266.136 163.35C271.896 163.35 276.351 162.495 279.501 160.785C282.651 159.075 284.226 156.825 284.226 154.035C284.226 151.785 283.461 149.985 281.931 148.635C280.401 147.285 278.241 146.115 275.451 145.125C272.661 144.135 269.286 143.235 265.326 142.425C261.726 141.705 257.901 140.58 253.851 139.05C249.801 137.52 245.976 135.45 242.376 132.84C238.776 130.14 235.851 126.765 233.601 122.715C231.351 118.665 230.226 113.76 230.226 108C230.226 100.62 232.611 94.5 237.381 89.64C242.151 84.78 248.316 81.135 255.876 78.705C263.436 76.185 271.491 74.925 280.041 74.925ZM385.256 129.465C385.256 138.285 386.921 145.35 390.251 150.66C393.581 155.88 399.161 158.49 406.991 158.49C415.001 158.49 420.626 155.88 423.866 150.66C427.196 145.35 428.861 138.285 428.861 129.465V78.165H469.361V133.785C469.361 145.665 466.886 156.015 461.936 164.835C457.076 173.565 450.011 180.315 440.741 185.085C431.471 189.855 420.221 192.24 406.991 192.24C393.851 192.24 382.646 189.855 373.376 185.085C364.106 180.315 357.041 173.565 352.181 164.835C347.321 156.015 344.891 145.665 344.891 133.785V78.165H385.256V129.465ZM531.826 189H490.786V78.165H531.826V95.31H531.151C531.871 93.24 533.626 90.63 536.416 87.48C539.206 84.24 543.121 81.36 548.161 78.84C553.201 76.23 559.366 74.925 566.656 74.925C571.786 74.925 576.511 75.735 580.831 77.355C585.151 78.885 588.301 80.37 590.281 81.81L574.351 115.155C573.091 113.625 570.841 112.05 567.601 110.43C564.451 108.72 560.491 107.865 555.721 107.865C550.231 107.865 545.686 109.26 542.086 112.05C538.576 114.84 535.966 118.215 534.256 122.175C532.636 126.135 531.826 129.87 531.826 133.38V189ZM657.686 248.265C649.946 248.265 642.251 247.59 634.601 246.24C627.041 244.89 619.976 242.595 613.406 239.355C606.836 236.115 601.301 231.66 596.801 225.99L620.831 201.015C622.901 203.445 625.421 205.83 628.391 208.17C631.451 210.51 635.186 212.445 639.596 213.975C644.096 215.505 649.541 216.27 655.931 216.27C661.871 216.27 667.046 215.235 671.456 213.165C675.866 211.095 679.286 208.08 681.716 204.12C684.236 200.16 685.496 195.345 685.496 189.675V186.975H725.861V192.105C725.861 204.345 722.801 214.65 716.681 223.02C710.651 231.39 702.506 237.69 692.246 241.92C681.986 246.15 670.466 248.265 657.686 248.265ZM685.496 189V171.045C684.686 172.845 682.616 175.455 679.286 178.875C676.046 182.295 671.726 185.4 666.326 188.19C660.926 190.89 654.626 192.24 647.426 192.24C636.626 192.24 627.176 189.63 619.076 184.41C610.976 179.1 604.676 172.035 600.176 163.215C595.676 154.305 593.426 144.45 593.426 133.65C593.426 122.85 595.676 113.04 600.176 104.22C604.676 95.31 610.976 88.2 619.076 82.89C627.176 77.58 636.626 74.925 647.426 74.925C654.356 74.925 660.431 76.05 665.651 78.3C670.871 80.46 675.101 83.07 678.341 86.13C681.581 89.1 683.831 91.845 685.091 94.365V78.165H725.861V189H685.496ZM633.656 133.65C633.656 138.69 634.826 143.235 637.166 147.285C639.506 151.245 642.611 154.35 646.481 156.6C650.441 158.85 654.806 159.975 659.576 159.975C664.526 159.975 668.891 158.85 672.671 156.6C676.451 154.35 679.421 151.245 681.581 147.285C683.831 143.235 684.956 138.69 684.956 133.65C684.956 128.61 683.831 124.11 681.581 120.15C679.421 116.1 676.451 112.95 672.671 110.7C668.891 108.36 664.526 107.19 659.576 107.19C654.806 107.19 650.441 108.36 646.481 110.7C642.611 112.95 639.506 116.1 637.166 120.15C634.826 124.11 633.656 128.61 633.656 133.65Z" fill="url(#paint0_linear_2014_4)"/>
</g>
<g filter="url(#filter1_i_2014_4)">
<path d="M796 189.5C800.867 189.5 805.546 188.82 810.005 187.675C810.427 187.621 810.863 187.512 811.3 187.333C835.023 180.642 852.5 158.862 852.5 133C852.5 117.362 846.102 103.203 835.817 92.9697C835.646 92.7681 835.362 92.4617 834.962 92.168C824.825 82.4911 811.111 76.5 796 76.5C764.844 76.5 739.5 101.844 739.5 133C739.5 149.096 746.304 163.597 757.114 173.883C757.416 174.258 757.802 174.635 758.287 174.956C768.288 183.952 781.489 189.5 796 189.5ZM785.844 87.9912C789.131 87.2362 792.522 86.8125 796 86.8125C805.417 86.8125 814.164 89.6678 821.475 94.5449L781.654 108.469L785.844 87.9912ZM751.609 120.402C755.077 108.201 763.444 98.0575 774.452 92.2227L766.226 132.438L751.609 120.402ZM812.217 108.709L830.472 102.326C837.755 110.498 842.188 121.236 842.188 133C842.188 133.964 842.154 134.921 842.095 135.871L812.217 108.709ZM775.232 139.859L779.245 120.239L801.145 112.583L816.084 126.162L811.335 148.459L793.069 154.551L775.232 139.859ZM749.155 118.532C749.169 118.539 749.186 118.545 749.204 118.554C749.209 118.556 749.215 118.56 749.221 118.563C749.195 118.551 749.173 118.54 749.155 118.532ZM762.519 164.731C754.652 156.441 749.812 145.28 749.812 133C749.812 132.761 749.816 132.522 749.82 132.283L781.527 158.396L762.519 164.731ZM824.919 134.193L839.75 147.677C835.811 159.389 827.305 169.014 816.35 174.42L824.919 134.193ZM796 179.188C787.214 179.188 778.996 176.72 771.994 172.441L808.841 160.158L804.987 178.256C802.061 178.853 799.064 179.188 796 179.188Z" stroke="url(#paint1_linear_2014_4)" stroke-width="7"/>
<path d="M779 138.5L782.5 123L800 116.5L812 127.5L808 145.5L793.5 150.5L779 138.5Z" stroke="#950707"/>
<path d="M779 138.5L782.5 123L800 116.5L812 127.5L808 145.5L793.5 150.5L779 138.5Z" stroke="url(#paint2_linear_2014_4)"/>
<path d="M771 141L776 117.5L802 108.5L820 125L814.5 151L792 158.5L771 141Z" stroke="url(#paint3_linear_2014_4)"/>
<path d="M763.5 160.5L774 157M804 166L802 175M827 141L835.5 148.5M829.5 106.5L819.5 110M789 91L786.5 103M755.5 119.5L764 126" stroke="#950707"/>
</g>
<g filter="url(#filter2_i_2014_4)">
<path d="M32.2734 286.902C26.5312 286.902 21.9102 286.711 18.4102 286.328C14.9375 285.945 12.2988 285.234 10.4941 284.195C8.7168 283.156 7.51367 281.68 6.88477 279.766C6.2832 277.852 5.98242 275.363 5.98242 272.301H13.5293C13.5293 274.023 13.6523 275.418 13.8984 276.484C14.1445 277.523 14.8418 278.33 15.9902 278.904C17.1387 279.451 18.998 279.834 21.5684 280.053C24.166 280.244 27.8027 280.34 32.4785 280.34C37.4277 280.34 41.2695 280.244 44.0039 280.053C46.7656 279.834 48.748 279.451 49.9512 278.904C51.1543 278.33 51.8789 277.51 52.125 276.443C52.3984 275.377 52.5352 273.969 52.5352 272.219C52.5352 270.086 52.3438 268.486 51.9609 267.42C51.5781 266.354 50.6758 265.643 49.2539 265.287C47.832 264.904 45.5625 264.699 42.4453 264.672L23.6602 264.467C18.8203 264.412 15.1289 264.002 12.5859 263.236C10.043 262.471 8.30664 261.131 7.37695 259.217C6.44727 257.275 5.98242 254.527 5.98242 250.973C5.98242 247.664 6.48828 245.107 7.5 243.303C8.53906 241.498 10.1523 240.213 12.3398 239.447C14.5273 238.682 17.3711 238.23 20.8711 238.094C24.3711 237.93 28.5957 237.848 33.5449 237.848C39.3691 237.848 43.9902 238.025 47.4082 238.381C50.8535 238.736 53.4238 239.406 55.1191 240.391C56.8418 241.375 57.9629 242.811 58.4824 244.697C59.0293 246.557 59.3027 248.99 59.3027 251.998H51.7559C51.7559 250.221 51.6328 248.826 51.3867 247.814C51.1406 246.775 50.4707 246.023 49.377 245.559C48.3105 245.066 46.5605 244.752 44.127 244.615C41.7207 244.479 38.3301 244.41 33.9551 244.41C28.9785 244.41 25.1094 244.465 22.3477 244.574C19.5859 244.684 17.5898 244.943 16.3594 245.354C15.1289 245.764 14.377 246.42 14.1035 247.322C13.8301 248.197 13.6934 249.414 13.6934 250.973C13.6934 252.559 13.7754 253.816 13.9395 254.746C14.1309 255.648 14.6094 256.332 15.375 256.797C16.1406 257.262 17.3848 257.576 19.1074 257.74C20.8574 257.877 23.291 257.959 26.4082 257.986L42.6094 258.15C47.4766 258.205 51.168 258.615 53.6836 259.381C56.2266 260.119 57.9492 261.5 58.8516 263.523C59.7812 265.52 60.2461 268.418 60.2461 272.219C60.2461 275.637 59.7402 278.33 58.7285 280.299C57.7441 282.268 56.1582 283.73 53.9707 284.688C51.7832 285.617 48.8984 286.219 45.3164 286.492C41.7617 286.766 37.4141 286.902 32.2734 286.902ZM78.1699 301.75V295.188C80.9863 295.188 83.3105 295.119 85.1426 294.982C87.002 294.873 88.5469 294.531 89.7773 293.957C91.0352 293.41 92.1562 292.508 93.1406 291.25C94.1523 289.992 95.2051 288.242 96.2988 286H93.6738L67.4238 238.75H76.4473L98.9238 280.135L117.832 238.75H127.061L103.107 288.625C102.041 290.84 100.934 292.768 99.7852 294.408C98.6641 296.049 97.2422 297.416 95.5195 298.51C93.8242 299.604 91.5957 300.41 88.834 300.93C86.0723 301.477 82.5176 301.75 78.1699 301.75ZM161.801 286.902C156.059 286.902 151.438 286.711 147.938 286.328C144.465 285.945 141.826 285.234 140.021 284.195C138.244 283.156 137.041 281.68 136.412 279.766C135.811 277.852 135.51 275.363 135.51 272.301H143.057C143.057 274.023 143.18 275.418 143.426 276.484C143.672 277.523 144.369 278.33 145.518 278.904C146.666 279.451 148.525 279.834 151.096 280.053C153.693 280.244 157.33 280.34 162.006 280.34C166.955 280.34 170.797 280.244 173.531 280.053C176.293 279.834 178.275 279.451 179.479 278.904C180.682 278.33 181.406 277.51 181.652 276.443C181.926 275.377 182.062 273.969 182.062 272.219C182.062 270.086 181.871 268.486 181.488 267.42C181.105 266.354 180.203 265.643 178.781 265.287C177.359 264.904 175.09 264.699 171.973 264.672L153.188 264.467C148.348 264.412 144.656 264.002 142.113 263.236C139.57 262.471 137.834 261.131 136.904 259.217C135.975 257.275 135.51 254.527 135.51 250.973C135.51 247.664 136.016 245.107 137.027 243.303C138.066 241.498 139.68 240.213 141.867 239.447C144.055 238.682 146.898 238.23 150.398 238.094C153.898 237.93 158.123 237.848 163.072 237.848C168.896 237.848 173.518 238.025 176.936 238.381C180.381 238.736 182.951 239.406 184.646 240.391C186.369 241.375 187.49 242.811 188.01 244.697C188.557 246.557 188.83 248.99 188.83 251.998H181.283C181.283 250.221 181.16 248.826 180.914 247.814C180.668 246.775 179.998 246.023 178.904 245.559C177.838 245.066 176.088 244.752 173.654 244.615C171.248 244.479 167.857 244.41 163.482 244.41C158.506 244.41 154.637 244.465 151.875 244.574C149.113 244.684 147.117 244.943 145.887 245.354C144.656 245.764 143.904 246.42 143.631 247.322C143.357 248.197 143.221 249.414 143.221 250.973C143.221 252.559 143.303 253.816 143.467 254.746C143.658 255.648 144.137 256.332 144.902 256.797C145.668 257.262 146.912 257.576 148.635 257.74C150.385 257.877 152.818 257.959 155.936 257.986L172.137 258.15C177.004 258.205 180.695 258.615 183.211 259.381C185.754 260.119 187.477 261.5 188.379 263.523C189.309 265.52 189.773 268.418 189.773 272.219C189.773 275.637 189.268 278.33 188.256 280.299C187.271 282.268 185.686 283.73 183.498 284.688C181.311 285.617 178.426 286.219 174.844 286.492C171.289 286.766 166.941 286.902 161.801 286.902ZM222.176 286C217.363 286 213.508 285.521 210.609 284.564C207.711 283.58 205.605 281.857 204.293 279.396C203.008 276.908 202.365 273.422 202.365 268.938V225.83H210.24V238.75H239.32V245.23H210.24V268.938C210.24 272 210.514 274.283 211.061 275.787C211.635 277.291 212.77 278.275 214.465 278.74C216.188 279.205 218.758 279.438 222.176 279.438C225.211 279.438 227.59 279.342 229.312 279.15C231.062 278.959 232.348 278.453 233.168 277.633C233.988 276.785 234.508 275.404 234.727 273.49C234.945 271.576 235.055 268.883 235.055 265.41H242.027C242.027 269.949 241.74 273.586 241.166 276.32C240.619 279.055 239.621 281.119 238.172 282.514C236.75 283.908 234.74 284.838 232.143 285.303C229.572 285.768 226.25 286 222.176 286ZM305.027 271.973C305.027 275.5 304.494 278.275 303.428 280.299C302.389 282.322 300.789 283.799 298.629 284.729C296.469 285.658 293.707 286.246 290.344 286.492C287.008 286.766 283.029 286.902 278.408 286.902C273.131 286.902 268.646 286.629 264.955 286.082C261.291 285.562 258.324 284.482 256.055 282.842C253.812 281.174 252.172 278.686 251.133 275.377C250.121 272.068 249.615 267.652 249.615 262.129C249.615 256.77 250.107 252.477 251.092 249.25C252.104 246.023 253.73 243.59 255.973 241.949C258.215 240.309 261.154 239.215 264.791 238.668C268.455 238.121 272.926 237.848 278.203 237.848C284.246 237.848 289.25 238.271 293.215 239.119C297.18 239.967 300.133 241.58 302.074 243.959C304.043 246.338 305.027 249.824 305.027 254.418V264.549H257.531C257.559 268.049 257.805 270.852 258.27 272.957C258.734 275.062 259.664 276.648 261.059 277.715C262.453 278.781 264.531 279.492 267.293 279.848C270.082 280.176 273.787 280.34 278.408 280.34C282.564 280.34 285.914 280.258 288.457 280.094C291.027 279.93 292.969 279.574 294.281 279.027C295.621 278.453 296.523 277.605 296.988 276.484C297.453 275.363 297.686 273.859 297.686 271.973H305.027ZM278.203 244.41C273.746 244.41 270.15 244.574 267.416 244.902C264.709 245.23 262.645 245.873 261.223 246.83C259.801 247.76 258.83 249.154 258.311 251.014C257.818 252.873 257.559 255.32 257.531 258.355H297.48V254.418C297.48 252.449 297.248 250.822 296.783 249.537C296.346 248.225 295.471 247.199 294.158 246.461C292.846 245.695 290.904 245.162 288.334 244.861C285.791 244.561 282.414 244.41 278.203 244.41ZM315.404 286V238.75H323.279V244.615C324.455 243.029 325.863 241.703 327.504 240.637C329.145 239.57 331.236 238.777 333.779 238.258C336.35 237.711 339.631 237.438 343.623 237.438C348.572 237.438 352.605 238.107 355.723 239.447C358.84 240.787 361.137 243.098 362.613 246.379C363.953 244.301 365.566 242.605 367.453 241.293C369.34 239.953 371.705 238.982 374.549 238.381C377.42 237.752 380.947 237.438 385.131 237.438C390.107 237.438 394.154 238.121 397.271 239.488C400.389 240.828 402.672 243.125 404.121 246.379C405.598 249.633 406.336 254.09 406.336 259.75V286H398.461V259.75C398.461 255.43 398.01 252.148 397.107 249.906C396.205 247.637 394.701 246.092 392.596 245.271C390.518 244.424 387.701 244 384.146 244C377.174 244 372.197 245.025 369.217 247.076C366.264 249.127 364.787 252.477 364.787 257.125V257.084C364.814 257.932 364.828 258.82 364.828 259.75V286H356.953V259.75C356.953 255.43 356.502 252.148 355.6 249.906C354.697 247.637 353.193 246.092 351.088 245.271C349.01 244.424 346.193 244 342.639 244C335.666 244 330.689 245.025 327.709 247.076C324.756 249.127 323.279 252.477 323.279 257.125V286H315.404ZM443.414 286.902C437.672 286.902 433.051 286.711 429.551 286.328C426.078 285.945 423.439 285.234 421.635 284.195C419.857 283.156 418.654 281.68 418.025 279.766C417.424 277.852 417.123 275.363 417.123 272.301H424.67C424.67 274.023 424.793 275.418 425.039 276.484C425.285 277.523 425.982 278.33 427.131 278.904C428.279 279.451 430.139 279.834 432.709 280.053C435.307 280.244 438.943 280.34 443.619 280.34C448.568 280.34 452.41 280.244 455.145 280.053C457.906 279.834 459.889 279.451 461.092 278.904C462.295 278.33 463.02 277.51 463.266 276.443C463.539 275.377 463.676 273.969 463.676 272.219C463.676 270.086 463.484 268.486 463.102 267.42C462.719 266.354 461.816 265.643 460.395 265.287C458.973 264.904 456.703 264.699 453.586 264.672L434.801 264.467C429.961 264.412 426.27 264.002 423.727 263.236C421.184 262.471 419.447 261.131 418.518 259.217C417.588 257.275 417.123 254.527 417.123 250.973C417.123 247.664 417.629 245.107 418.641 243.303C419.68 241.498 421.293 240.213 423.48 239.447C425.668 238.682 428.512 238.23 432.012 238.094C435.512 237.93 439.736 237.848 444.686 237.848C450.51 237.848 455.131 238.025 458.549 238.381C461.994 238.736 464.564 239.406 466.26 240.391C467.982 241.375 469.104 242.811 469.623 244.697C470.17 246.557 470.443 248.99 470.443 251.998H462.896C462.896 250.221 462.773 248.826 462.527 247.814C462.281 246.775 461.611 246.023 460.518 245.559C459.451 245.066 457.701 244.752 455.268 244.615C452.861 244.479 449.471 244.41 445.096 244.41C440.119 244.41 436.25 244.465 433.488 244.574C430.727 244.684 428.73 244.943 427.5 245.354C426.27 245.764 425.518 246.42 425.244 247.322C424.971 248.197 424.834 249.414 424.834 250.973C424.834 252.559 424.916 253.816 425.08 254.746C425.271 255.648 425.75 256.332 426.516 256.797C427.281 257.262 428.525 257.576 430.248 257.74C431.998 257.877 434.432 257.959 437.549 257.986L453.75 258.15C458.617 258.205 462.309 258.615 464.824 259.381C467.367 260.119 469.09 261.5 469.992 263.523C470.922 265.52 471.387 268.418 471.387 272.219C471.387 275.637 470.881 278.33 469.869 280.299C468.885 282.268 467.299 283.73 465.111 284.688C462.924 285.617 460.039 286.219 456.457 286.492C452.902 286.766 448.555 286.902 443.414 286.902Z" fill="url(#paint4_linear_2014_4)"/>
</g>
<defs>
<filter id="filter0_i_2014_4" x="10.7029" y="8.91016" width="715.158" height="243.355" filterUnits="userSpaceOnUse" color-interpolation-filters="sRGB">
<feFlood flood-opacity="0" result="BackgroundImageFix"/>
<feBlend mode="normal" in="SourceGraphic" in2="BackgroundImageFix" result="shape"/>
<feColorMatrix in="SourceAlpha" type="matrix" values="0 0 0 0 0 0 0 0 0 0 0 0 0 0 0 0 0 0 127 0" result="hardAlpha"/>
<feOffset dy="4"/>
<feGaussianBlur stdDeviation="2"/>
<feComposite in2="hardAlpha" operator="arithmetic" k2="-1" k3="1"/>
<feColorMatrix type="matrix" values="0 0 0 0 0 0 0 0 0 0 0 0 0 0 0 0 0 0 0.25 0"/>
<feBlend mode="normal" in2="shape" result="effect1_innerShadow_2014_4"/>
</filter>
<filter id="filter1_i_2014_4" x="736" y="73" width="120" height="124" filterUnits="userSpaceOnUse" color-interpolation-filters="sRGB">
<feFlood flood-opacity="0" result="BackgroundImageFix"/>
<feBlend mode="normal" in="SourceGraphic" in2="BackgroundImageFix" result="shape"/>
<feColorMatrix in="SourceAlpha" type="matrix" values="0 0 0 0 0 0 0 0 0 0 0 0 0 0 0 0 0 0 127 0" result="hardAlpha"/>
<feOffset dy="4"/>
<feGaussianBlur stdDeviation="2"/>
<feComposite in2="hardAlpha" operator="arithmetic" k2="-1" k3="1"/>
<feColorMatrix type="matrix" values="0 0 0 0 0 0 0 0 0 0 0 0 0 0 0 0 0 0 0.25 0"/>
<feBlend mode="normal" in2="shape" result="effect1_innerShadow_2014_4"/>
</filter>
<filter id="filter2_i_2014_4" x="5.98242" y="225.83" width="465.404" height="79.9199" filterUnits="userSpaceOnUse" color-interpolation-filters="sRGB">
<feFlood flood-opacity="0" result="BackgroundImageFix"/>
<feBlend mode="normal" in="SourceGraphic" in2="BackgroundImageFix" result="shape"/>
<feColorMatrix in="SourceAlpha" type="matrix" values="0 0 0 0 0 0 0 0 0 0 0 0 0 0 0 0 0 0 127 0" result="hardAlpha"/>
<feOffset dy="4"/>
<feGaussianBlur stdDeviation="2"/>
<feComposite in2="hardAlpha" operator="arithmetic" k2="-1" k3="1"/>
<feColorMatrix type="matrix" values="0 0 0 0 0 0 0 0 0 0 0 0 0 0 0 0 0 0 0.25 0"/>
<feBlend mode="normal" in2="shape" result="effect1_innerShadow_2014_4"/>
</filter>
<linearGradient id="paint0_linear_2014_4" x1="370.5" y1="0" x2="370.5" y2="248" gradientUnits="userSpaceOnUse">
<stop stop-color="#FB0C0C"/>
<stop offset="0.66" stop-color="#950707"/>
</linearGradient>
<linearGradient id="paint1_linear_2014_4" x1="796" y1="186" x2="796" y2="80" gradientUnits="userSpaceOnUse">
<stop stop-color="#950707"/>
<stop offset="0.9999" stop-color="#FB0C0C"/>
</linearGradient>
<linearGradient id="paint2_linear_2014_4" x1="795.5" y1="150.5" x2="795.5" y2="116.5" gradientUnits="userSpaceOnUse">
<stop offset="0.145" stop-color="white"/>
<stop offset="0.475" stop-color="#CFCFCF"/>
<stop offset="1" stop-color="#999999"/>
</linearGradient>
<linearGradient id="paint3_linear_2014_4" x1="795.5" y1="158.5" x2="795.5" y2="108.5" gradientUnits="userSpaceOnUse">
<stop offset="0.145" stop-color="white"/>
<stop offset="0.475" stop-color="#CFCFCF"/>
<stop offset="1" stop-color="#999999"/>
</linearGradient>
<linearGradient id="paint4_linear_2014_4" x1="238.5" y1="189" x2="238.5" y2="308" gradientUnits="userSpaceOnUse">
<stop stop-color="white"/>
<stop offset="0.333333" stop-color="#C1C1C1"/>
<stop offset="0.666667" stop-color="#999999"/>
<stop offset="1"/>
</linearGradient>
</defs>
</svg>
