<svg width="900" height="280" viewBox="1180 375 900 280" fill="none" xmlns="http://www.w3.org/2000/svg">
<g filter="url(#filter0_i_2002_13)">
<path d="M1207.86 575V464.165H1248.9V575H1207.86ZM1228.92 441.35C1222.44 441.35 1216.95 439.1 1212.45 434.6C1207.95 430.01 1205.7 424.565 1205.7 418.265C1205.7 411.965 1207.95 406.52 1212.45 401.93C1217.04 397.25 1222.53 394.91 1228.92 394.91C1233.15 394.91 1237.02 395.99 1240.53 398.15C1244.04 400.22 1246.88 403.01 1249.04 406.52C1251.2 410.03 1252.28 413.945 1252.28 418.265C1252.28 424.565 1249.98 430.01 1245.39 434.6C1240.8 439.1 1235.31 441.35 1228.92 441.35ZM1353.45 460.925C1361.19 460.925 1368.75 462.5 1376.13 465.65C1383.51 468.8 1389.59 473.795 1394.36 480.635C1399.13 487.385 1401.51 496.295 1401.51 507.365V575H1360.34V514.115C1360.34 506.195 1358.45 500.255 1354.67 496.295C1350.89 492.245 1345.94 490.22 1339.82 490.22C1335.77 490.22 1331.94 491.3 1328.34 493.46C1324.83 495.53 1321.95 498.5 1319.7 502.37C1317.54 506.15 1316.46 510.515 1316.46 515.465V575H1275.42V464.165H1316.46V480.5C1317.54 477.53 1319.79 474.56 1323.21 471.59C1326.72 468.53 1331.09 466.01 1336.31 464.03C1341.62 461.96 1347.33 460.925 1353.45 460.925ZM1475.04 460.925C1482.33 460.925 1488.99 461.555 1495.02 462.815C1501.05 463.985 1506.09 465.335 1510.14 466.865C1514.28 468.395 1516.94 469.655 1518.11 470.645L1504.74 494.81C1503.03 493.55 1499.84 491.93 1495.16 489.95C1490.57 487.97 1485.44 486.98 1479.77 486.98C1475.45 486.98 1471.8 487.655 1468.83 489.005C1465.86 490.265 1464.38 492.29 1464.38 495.08C1464.38 497.87 1466 500.12 1469.24 501.83C1472.57 503.45 1477.34 504.89 1483.55 506.15C1488.95 507.23 1494.44 508.94 1500.02 511.28C1505.6 513.62 1510.23 517.085 1513.92 521.675C1517.7 526.175 1519.59 532.205 1519.59 539.765C1519.59 547.505 1517.93 553.895 1514.6 558.935C1511.27 563.975 1506.86 567.89 1501.37 570.68C1495.88 573.47 1489.94 575.405 1483.55 576.485C1477.16 577.655 1470.95 578.24 1464.92 578.24C1456.46 578.24 1449.08 577.475 1442.78 575.945C1436.57 574.415 1431.53 572.66 1427.66 570.68C1423.79 568.7 1421.09 567.125 1419.56 565.955L1432.79 538.955C1435.13 540.935 1438.95 543.185 1444.26 545.705C1449.57 548.135 1455.2 549.35 1461.14 549.35C1466.9 549.35 1471.35 548.495 1474.5 546.785C1477.65 545.075 1479.23 542.825 1479.23 540.035C1479.23 537.785 1478.46 535.985 1476.93 534.635C1475.4 533.285 1473.24 532.115 1470.45 531.125C1467.66 530.135 1464.29 529.235 1460.33 528.425C1456.73 527.705 1452.9 526.58 1448.85 525.05C1444.8 523.52 1440.98 521.45 1437.38 518.84C1433.78 516.14 1430.85 512.765 1428.6 508.715C1426.35 504.665 1425.23 499.76 1425.23 494C1425.23 486.62 1427.61 480.5 1432.38 475.64C1437.15 470.78 1443.32 467.135 1450.88 464.705C1458.44 462.185 1466.49 460.925 1475.04 460.925ZM1580.26 515.465C1580.26 524.285 1581.92 531.35 1585.25 536.66C1588.58 541.88 1594.16 544.49 1601.99 544.49C1610 544.49 1615.63 541.88 1618.87 536.66C1622.2 531.35 1623.86 524.285 1623.86 515.465V464.165H1664.36V519.785C1664.36 531.665 1661.89 542.015 1656.94 550.835C1652.08 559.565 1645.01 566.315 1635.74 571.085C1626.47 575.855 1615.22 578.24 1601.99 578.24C1588.85 578.24 1577.65 575.855 1568.38 571.085C1559.11 566.315 1552.04 559.565 1547.18 550.835C1542.32 542.015 1539.89 531.665 1539.89 519.785V464.165H1580.26V515.465ZM1726.83 575H1685.79V464.165H1726.83V481.31H1726.15C1726.87 479.24 1728.63 476.63 1731.42 473.48C1734.21 470.24 1738.12 467.36 1743.16 464.84C1748.2 462.23 1754.37 460.925 1761.66 460.925C1766.79 460.925 1771.51 461.735 1775.83 463.355C1780.15 464.885 1783.3 466.37 1785.28 467.81L1769.35 501.155C1768.09 499.625 1765.84 498.05 1762.6 496.43C1759.45 494.72 1755.49 493.865 1750.72 493.865C1745.23 493.865 1740.69 495.26 1737.09 498.05C1733.58 500.84 1730.97 504.215 1729.26 508.175C1727.64 512.135 1726.83 515.87 1726.83 519.38V575ZM1852.69 634.265C1844.95 634.265 1837.25 633.59 1829.6 632.24C1822.04 630.89 1814.98 628.595 1808.41 625.355C1801.84 622.115 1796.3 617.66 1791.8 611.99L1815.83 587.015C1817.9 589.445 1820.42 591.83 1823.39 594.17C1826.45 596.51 1830.19 598.445 1834.6 599.975C1839.1 601.505 1844.54 602.27 1850.93 602.27C1856.87 602.27 1862.05 601.235 1866.46 599.165C1870.87 597.095 1874.29 594.08 1876.72 590.12C1879.24 586.16 1880.5 581.345 1880.5 575.675V572.975H1920.86V578.105C1920.86 590.345 1917.8 600.65 1911.68 609.02C1905.65 617.39 1897.51 623.69 1887.25 627.92C1876.99 632.15 1865.47 634.265 1852.69 634.265ZM1880.5 575V557.045C1879.69 558.845 1877.62 561.455 1874.29 564.875C1871.05 568.295 1866.73 571.4 1861.33 574.19C1855.93 576.89 1849.63 578.24 1842.43 578.24C1831.63 578.24 1822.18 575.63 1814.08 570.41C1805.98 565.1 1799.68 558.035 1795.18 549.215C1790.68 540.305 1788.43 530.45 1788.43 519.65C1788.43 508.85 1790.68 499.04 1795.18 490.22C1799.68 481.31 1805.98 474.2 1814.08 468.89C1822.18 463.58 1831.63 460.925 1842.43 460.925C1849.36 460.925 1855.43 462.05 1860.65 464.3C1865.87 466.46 1870.1 469.07 1873.34 472.13C1876.58 475.1 1878.83 477.845 1880.09 480.365V464.165H1920.86V575H1880.5ZM1828.66 519.65C1828.66 524.69 1829.83 529.235 1832.17 533.285C1834.51 537.245 1837.61 540.35 1841.48 542.6C1845.44 544.85 1849.81 545.975 1854.58 545.975C1859.53 545.975 1863.89 544.85 1867.67 542.6C1871.45 540.35 1874.42 537.245 1876.58 533.285C1878.83 529.235 1879.96 524.69 1879.96 519.65C1879.96 514.61 1878.83 510.11 1876.58 506.15C1874.42 502.1 1871.45 498.95 1867.67 496.7C1863.89 494.36 1859.53 493.19 1854.58 493.19C1849.81 493.19 1845.44 494.36 1841.48 496.7C1837.61 498.95 1834.51 502.1 1832.17 506.15C1829.83 510.11 1828.66 514.61 1828.66 519.65Z" fill="url(#paint0_linear_2002_13)"/>
</g>
<g filter="url(#filter1_i_2002_13)">
<path d="M1991 575.5C1995.87 575.5 2000.55 574.82 2005 573.675C2005.43 573.621 2005.86 573.512 2006.3 573.333C2030.02 566.642 2047.5 544.862 2047.5 519C2047.5 503.362 2041.1 489.203 2030.82 478.97C2030.65 478.768 2030.36 478.462 2029.96 478.168C2019.82 468.491 2006.11 462.5 1991 462.5C1959.84 462.5 1934.5 487.844 1934.5 519C1934.5 535.096 1941.3 549.597 1952.11 559.883C1952.42 560.258 1952.8 560.635 1953.29 560.956C1963.29 569.952 1976.49 575.5 1991 575.5ZM1980.84 473.991C1984.13 473.236 1987.52 472.812 1991 472.812C2000.42 472.812 2009.16 475.668 2016.47 480.545L1976.65 494.469L1980.84 473.991ZM1946.61 506.402C1950.08 494.201 1958.44 484.057 1969.45 478.223L1961.23 518.438L1946.61 506.402ZM2007.22 494.709L2025.47 488.326C2032.75 496.498 2037.19 507.236 2037.19 519C2037.19 519.964 2037.15 520.921 2037.09 521.871L2007.22 494.709ZM1970.23 525.859L1974.25 506.239L1996.14 498.583L2011.08 512.162L2006.33 534.459L1988.07 540.551L1970.23 525.859ZM1944.17 504.539C1944.18 504.544 1944.19 504.548 1944.2 504.554C1944.21 504.555 1944.21 504.557 1944.21 504.559C1944.2 504.551 1944.18 504.545 1944.17 504.539ZM1957.52 550.731C1949.65 542.441 1944.81 531.28 1944.81 519C1944.81 518.761 1944.82 518.522 1944.82 518.283L1976.53 544.396L1957.52 550.731ZM2019.92 520.193L2034.75 533.677C2030.81 545.389 2022.31 555.014 2011.35 560.42L2019.92 520.193ZM1991 565.188C1982.21 565.188 1974 562.72 1966.99 558.441L2003.84 546.158L1999.99 564.256C1997.06 564.853 1994.06 565.188 1991 565.188Z" stroke="url(#paint1_linear_2002_13)" stroke-width="7"/>
<path d="M1974 524.5L1977.5 509L1995 502.5L2007 513.5L2003 531.5L1988.5 536.5L1974 524.5Z" stroke="#950707"/>
<path d="M1974 524.5L1977.5 509L1995 502.5L2007 513.5L2003 531.5L1988.5 536.5L1974 524.5Z" stroke="url(#paint2_linear_2002_13)"/>
<path d="M1966 527L1971 503.5L1997 494.5L2015 511L2009.5 537L1987 544.5L1966 527Z" stroke="url(#paint3_linear_2002_13)"/>
<path d="M1958.5 546.5L1969 543M1999 552L1997 561M2022 527L2030.5 534.5M2024.5 492.5L2014.5 496M1984 477L1981.5 489M1950.5 505.5L1959 512" stroke="#950707"/>
</g>
<defs>
<filter id="filter0_i_2002_13" x="1205.7" y="394.91" width="715.158" height="243.355" filterUnits="userSpaceOnUse" color-interpolation-filters="sRGB">
<feFlood flood-opacity="0" result="BackgroundImageFix"/>
<feBlend mode="normal" in="SourceGraphic" in2="BackgroundImageFix" result="shape"/>
<feColorMatrix in="SourceAlpha" type="matrix" values="0 0 0 0 0 0 0 0 0 0 0 0 0 0 0 0 0 0 127 0" result="hardAlpha"/>
<feOffset dy="4"/>
<feGaussianBlur stdDeviation="2"/>
<feComposite in2="hardAlpha" operator="arithmetic" k2="-1" k3="1"/>
<feColorMatrix type="matrix" values="0 0 0 0 0 0 0 0 0 0 0 0 0 0 0 0 0 0 0.25 0"/>
<feBlend mode="normal" in2="shape" result="effect1_innerShadow_2002_13"/>
</filter>
<filter id="filter1_i_2002_13" x="1931" y="459" width="120" height="124" filterUnits="userSpaceOnUse" color-interpolation-filters="sRGB">
<feFlood flood-opacity="0" result="BackgroundImageFix"/>
<feBlend mode="normal" in="SourceGraphic" in2="BackgroundImageFix" result="shape"/>
<feColorMatrix in="SourceAlpha" type="matrix" values="0 0 0 0 0 0 0 0 0 0 0 0 0 0 0 0 0 0 127 0" result="hardAlpha"/>
<feOffset dy="4"/>
<feGaussianBlur stdDeviation="2"/>
<feComposite in2="hardAlpha" operator="arithmetic" k2="-1" k3="1"/>
<feColorMatrix type="matrix" values="0 0 0 0 0 0 0 0 0 0 0 0 0 0 0 0 0 0 0.25 0"/>
<feBlend mode="normal" in2="shape" result="effect1_innerShadow_2002_13"/>
</filter>
<linearGradient id="paint0_linear_2002_13" x1="1565.5" y1="386" x2="1565.5" y2="634" gradientUnits="userSpaceOnUse">
<stop stop-color="#FB0C0C"/>
<stop offset="0.66" stop-color="#950707"/>
</linearGradient>
<linearGradient id="paint1_linear_2002_13" x1="1991" y1="572" x2="1991" y2="466" gradientUnits="userSpaceOnUse">
<stop stop-color="#950707"/>
<stop offset="0.9999" stop-color="#FB0C0C"/>
</linearGradient>
<linearGradient id="paint2_linear_2002_13" x1="1990.5" y1="536.5" x2="1990.5" y2="502.5" gradientUnits="userSpaceOnUse">
<stop offset="0.145" stop-color="white"/>
<stop offset="0.475" stop-color="#CFCFCF"/>
<stop offset="1" stop-color="#999999"/>
</linearGradient>
<linearGradient id="paint3_linear_2002_13" x1="1990.5" y1="544.5" x2="1990.5" y2="494.5" gradientUnits="userSpaceOnUse">
<stop offset="0.145" stop-color="white"/>
<stop offset="0.475" stop-color="#CFCFCF"/>
<stop offset="1" stop-color="#999999"/>
</linearGradient>
</defs>
</svg>
